<svg width="16" height="22" viewBox="0 0 16 22" fill="none" xmlns="http://www.w3.org/2000/svg">
<path d="M3.5 1H3.64645C3.87282 1 4.08993 1.08993 4.25 1.25C4.41007 1.41007 4.5 1.62718 4.5 1.85355V20.1464C4.5 20.3728 4.41007 20.5899 4.25 20.75C4.08993 20.9101 3.87282 21 3.64645 21H3.5H3H2.70711C2.25435 21 1.82014 20.8201 1.5 20.5C1.17986 20.1799 1 19.7456 1 19.2929V2.5V2.30902C1 2.1058 1.04731 1.90537 1.1382 1.72361L1.27639 1.44721C1.41343 1.17313 1.69357 1 2 1H2.5H3H3.5Z" fill="#E1E1E6" stroke="#E1E1E6"/>
<path d="M14.5 1H14.6464C14.8728 1 15.0899 1.08993 15.25 1.25C15.4101 1.41007 15.5 1.62718 15.5 1.85355V20.1464C15.5 20.3728 15.4101 20.5899 15.25 20.75C15.0899 20.9101 14.8728 21 14.6464 21H14.5H14H13.7071C13.2544 21 12.8201 20.8201 12.5 20.5C12.1799 20.1799 12 19.7456 12 19.2929V2.5V2.30902C12 2.1058 12.0473 1.90537 12.1382 1.72361L12.2764 1.44721C12.4134 1.17313 12.6936 1 13 1H13.5H14H14.5Z" fill="#E1E1E6" stroke="#E1E1E6"/>
</svg>
